<?xml version="1.0" encoding="UTF-8" standalone="no"?>
<!-- Created with Inkscape (http://www.inkscape.org/) -->

<svg
   xmlns:dc="http://purl.org/dc/elements/1.1/"
   xmlns:cc="http://creativecommons.org/ns#"
   xmlns:rdf="http://www.w3.org/1999/02/22-rdf-syntax-ns#"
   xmlns:svg="http://www.w3.org/2000/svg"
   xmlns="http://www.w3.org/2000/svg"
   xmlns:sodipodi="http://sodipodi.sourceforge.net/DTD/sodipodi-0.dtd"
   xmlns:inkscape="http://www.inkscape.org/namespaces/inkscape"
   width="95.032219mm"
   height="15.830774mm"
   viewBox="0 0 95.032219 15.830774"
   version="1.1"
   id="svg8"
   inkscape:version="0.92.3 (2405546, 2018-03-11)"
   sodipodi:docname="Ingmanaulogga1.svg">
  <defs
     id="defs2" />
  <sodipodi:namedview
     id="base"
     pagecolor="#ffffff"
     bordercolor="#666666"
     borderopacity="1.0"
     inkscape:pageopacity="0.0"
     inkscape:pageshadow="2"
     inkscape:zoom="0.98994949"
     inkscape:cx="587.81776"
     inkscape:cy="-14.294545"
     inkscape:document-units="mm"
     inkscape:current-layer="layer4"
     showgrid="false"
     fit-margin-top="0"
     fit-margin-left="0"
     fit-margin-right="0"
     fit-margin-bottom="0"
     inkscape:window-width="2560"
     inkscape:window-height="1377"
     inkscape:window-x="-8"
     inkscape:window-y="-8"
     inkscape:window-maximized="1" />
  <metadata
     id="metadata5">
    <rdf:RDF>
      <cc:Work
         rdf:about="">
        <dc:format>image/svg+xml</dc:format>
        <dc:type
           rdf:resource="http://purl.org/dc/dcmitype/StillImage" />
        <dc:title></dc:title>
      </cc:Work>
    </rdf:RDF>
  </metadata>
  <g
     inkscape:groupmode="layer"
     id="layer4"
     inkscape:label="Layer 2"
     style="display:inline"
     transform="translate(-56.530324,-87.442115)">
    <g
       id="g3891"
       transform="matrix(0.19493558,-0.16064704,0.13636781,0.21514032,90.917214,92.468987)">
      <g
         id="g3831">
	<path
   id="path3821"
   d="M 22.631,12.348 21.553,11.27 c -0.483,-0.483 -0.483,-1.267 0,-1.75 l 8.856,-8.856 c 0.483,-0.483 1.267,-0.483 1.75,0 l 1.078,1.078 c 0.483,0.483 0.483,1.267 0,1.75 l -8.856,8.856 c -0.483,0.483 -1.267,0.483 -1.75,0 z"
   style="fill:#744716"
   inkscape:connector-curvature="0" />

	<path
   id="path3823"
   d="m 42.43,32.147 -1.078,-1.078 c -0.483,-0.483 -0.483,-1.267 0,-1.75 l 8.856,-8.856 c 0.483,-0.483 1.267,-0.483 1.75,0 l 1.078,1.078 c 0.483,0.483 0.483,1.267 0,1.75 l -8.856,8.856 c -0.483,0.483 -1.267,0.483 -1.75,0 z"
   style="fill:#744716"
   inkscape:connector-curvature="0" />

	<path
   id="path3825"
   d="m 50.208,18.712 -1.246,-1.246 c -0.387,-0.387 -1.023,-0.401 -1.406,-0.009 -0.39,0.399 -1.029,0.402 -1.423,0.009 L 36.234,7.567 C 35.847,7.18 35.833,6.544 36.225,6.162 36.624,5.772 36.627,5.132 36.234,4.739 L 34.988,3.493 c -0.483,-0.483 -1.267,-0.483 -1.75,0 l -8.856,8.856 c -0.483,0.483 -0.483,1.267 0,1.75 l 1.246,1.246 c 0.387,0.387 1.023,0.401 1.405,0.009 0.39,-0.399 1.03,-0.402 1.423,-0.009 l 1.596,1.596 c 0.68,0.68 0.68,1.784 0,2.464 l -7.96,7.96 -1.414,-1.414 c -0.781,-0.781 -2.047,-0.781 -2.828,0 -0.781,0.781 -0.781,2.047 0,2.828 l 1.414,1.414 -9.775,9.775 C 8.833,40.624 8.01,41.09 7.11,41.315 l -2.905,0.726 c -0.9,0.225 -1.723,0.691 -2.379,1.347 L 1.5,43.714 C 0.54,44.675 0,45.977 0,47.336 c 0,1.358 0.54,2.661 1.5,3.621 L 2.743,52.2 c 0.96,0.96 2.263,1.5 3.621,1.5 1.358,0 2.661,-0.54 3.621,-1.5 l 0.325,-0.325 c 0.656,-0.656 1.122,-1.479 1.347,-2.379 l 0.726,-2.905 c 0.225,-0.9 0.691,-1.723 1.347,-2.379 l 9.775,-9.775 1.414,1.414 c 0.781,0.781 2.047,0.781 2.828,0 0.781,-0.781 0.781,-2.047 0,-2.828 l -1.414,-1.414 7.96,-7.96 c 0.68,-0.68 1.784,-0.68 2.464,0 l 1.596,1.596 c 0.387,0.387 0.401,1.023 0.009,1.406 -0.399,0.39 -0.402,1.029 -0.009,1.423 l 1.246,1.246 c 0.483,0.483 1.267,0.483 1.75,0 l 8.856,-8.856 c 0.486,-0.485 0.486,-1.269 0.003,-1.752 z"
   style="fill:#9d714b"
   inkscape:connector-curvature="0" />

	
	
</g>
      <g
         id="g3833">
</g>
      <g
         id="g3835">
</g>
      <g
         id="g3837">
</g>
      <g
         id="g3839">
</g>
      <g
         id="g3841">
</g>
      <g
         id="g3843">
</g>
      <g
         id="g3845">
</g>
      <g
         id="g3847">
</g>
      <g
         id="g3849">
</g>
      <g
         id="g3851">
</g>
      <g
         id="g3853">
</g>
      <g
         id="g3855">
</g>
      <g
         id="g3857">
</g>
      <g
         id="g3859">
</g>
      <g
         id="g3861">
</g>
    </g>
    <path
       style="opacity:1;fill:#9d714b;fill-opacity:1;fill-rule:nonzero;stroke:#000000;stroke-width:0.35770527;stroke-linecap:round;stroke-linejoin:round;stroke-miterlimit:4;stroke-dasharray:none;stroke-opacity:1"
       d="m 215.45035,385.05513 1.32248,-1.35434 v -13.64463 -13.64462 l -1.29156,-1.4296 -1.29156,-1.4296 h 4.37101 c 4.84812,0 4.59224,-0.22276 2.59558,2.25954 l -0.81204,1.00955 v 13.4772 13.47721 l 1.07143,1.0265 c 0.58928,0.56457 1.07142,1.15714 1.07142,1.31681 0,0.15968 -1.88083,0.29033 -4.17962,0.29033 h -4.17962 z"
       id="path3895"
       inkscape:connector-curvature="0"
       transform="scale(0.26458333)" />
    <path
       style="opacity:1;fill:#9d714b;fill-opacity:1;fill-rule:nonzero;stroke:#000000;stroke-width:0.35770527;stroke-linecap:round;stroke-linejoin:round;stroke-miterlimit:4;stroke-dasharray:none;stroke-opacity:1"
       d="m 215.49892,384.85484 1.27391,-1.55464 v -13.29597 -13.29597 l -1.25,-1.52546 c -0.6875,-0.839 -1.25,-1.62944 -1.25,-1.75653 0,-0.29779 6.701,-0.23391 7.79719,0.0743 l 0.83291,0.23421 -1.27587,1.60519 -1.27587,1.60519 -0.003,13.30255 -0.003,13.30254 1.29156,1.4296 1.29155,1.4296 h -4.35118 -4.35118 z"
       id="path3897"
       inkscape:connector-curvature="0"
       transform="scale(0.26458333)" />
    <path
       style="opacity:1;fill:#9d714b;fill-opacity:1;fill-rule:nonzero;stroke:#000000;stroke-width:0.35770527;stroke-linecap:round;stroke-linejoin:round;stroke-miterlimit:4;stroke-dasharray:none;stroke-opacity:1"
       d="m 275.13468,377.65948 c 3.7e-4,-3.53572 0.0538,-4.93384 0.11877,-3.10694 0.065,1.8269 0.0646,4.71976 -6.8e-4,6.42857 -0.0653,1.70882 -0.11847,0.21408 -0.11809,-3.32163 z"
       id="path3899"
       inkscape:connector-curvature="0"
       transform="scale(0.26458333)" />
  </g>
  <text
     xml:space="preserve"
     style="font-style:normal;font-variant:normal;font-weight:normal;font-stretch:normal;font-size:12.54415131px;line-height:1.25;font-family:'BankGothic Md BT';-inkscape-font-specification:'BankGothic Md BT';letter-spacing:0px;word-spacing:0px;fill:#000000;fill-opacity:1;stroke:none;stroke-width:0.31360379"
     x="-0.25112802"
     y="13.7105"
     id="text3817"
     transform="scale(0.88968843,1.123989)"><tspan
       sodipodi:role="line"
       id="tspan3815"
       x="-0.25112802"
       y="13.7105"
       style="font-style:normal;font-variant:normal;font-weight:normal;font-stretch:normal;font-family:Algerian;-inkscape-font-specification:Algerian;stroke-width:0.31360379">Ingman Auctions</tspan></text>
  <g
     inkscape:groupmode="layer"
     id="layer3"
     inkscape:label="Layer 1"
     style="display:inline"
     transform="translate(-56.530324,-87.442115)" />
</svg>
